<?xml version="1.0" encoding="UTF-8"?>
<svg id="d" data-name="Markers" xmlns="http://www.w3.org/2000/svg" viewBox="0 0 16 16">
  <defs>
    <style>
      .g {
        fill: #633400;
      }

      .h {
        fill: #ff8500;
      }
    </style>
  </defs>
  <polygon class="g" points="16 4.59 10.03 14.95 5.97 14.95 0 4.59 2.03 1.05 13.97 1.05 16 4.59"/>
  <path class="h" d="M12.1,1.75c-1.39,0-2.54,1.03-2.74,2.37h-3.37L3.26,1.21l-.59.55,2.22,2.35h-2.25l4.78,5.35v4.67h-2.24v.8h5.36v-.8h-2.32v-4.67l2.36-2.64c.45.3.98.46,1.52.46,1.53,0,2.77-1.24,2.77-2.77s-1.24-2.77-2.77-2.77ZM10.13,6.13h-4.61l-1.08-1.21h6.77l-1.08,1.21Z"/>
</svg>