<?xml version="1.0" encoding="UTF-8"?>
<svg id="d" data-name="Markers" xmlns="http://www.w3.org/2000/svg" viewBox="0 0 256 256">
  <defs>
    <style>
      .g {
        fill: #ff8500;
      }
    </style>
  </defs>
  <path class="g" d="M255.14,76.05l-32.71-56.81c-1.12-1.99-3.24-3.22-5.54-3.22H39.11c-2.27,0-4.39,1.22-5.53,3.2L.86,76.05c-1.14,1.97-1.15,4.42-.01,6.38l88.89,154.36c1.14,1.96,3.27,3.19,5.53,3.19h65.46c2.26,0,4.39-1.22,5.53-3.19l88.89-154.34c1.14-1.97,1.13-4.42-.01-6.39ZM242.26,79.25l-85.22,147.97h-58.08L13.74,79.25l29.06-50.47h170.41l29.06,50.47Z"/>
  <path class="g" d="M178.38,46.97c-16.37,0-29.96,12.13-32.26,27.87h-39.66l-32.2-34.19-6.9,6.49,26.08,27.7h-26.48l56.26,63.04v55h-26.4v9.47h63.16v-9.47h-27.29v-55l27.74-31.09c5.3,3.49,11.52,5.38,17.94,5.38,17.98,0,32.61-14.63,32.61-32.61s-14.63-32.61-32.61-32.61ZM155.12,98.52h-54.33l-12.68-14.21h79.69l-12.68,14.21Z"/>
</svg>