<?xml version="1.0" encoding="UTF-8"?>
<svg xmlns="http://www.w3.org/2000/svg" viewBox="0 0 580.14 405.76">
  <defs>
    <style>
      .ae, .af {
        fill: aqua;
      }

      .ae, .ag, .ah, .ai {
        font-size: 12px;
      }

      .ae, .ag, .ah, .ai, .aj {
        font-family: EurostileRegular, Eurostile;
      }

      .ae, .ah, .ai, .ak {
        letter-spacing: .06em;
      }

      .al {
        stroke-dasharray: 4.86 4.86;
      }

      .al, .am, .an, .ao, .ap, .aq, .ar, .as, .at {
        fill: none;
        stroke-miterlimit: 10;
      }

      .al, .an, .ao, .ap, .aq, .as {
        stroke: #ff931e;
      }

      .am {
        stroke: #004a5b;
      }

      .an {
        stroke-dasharray: 4.95 4.95;
      }

      .ah, .au {
        fill: lime;
      }

      .ao {
        stroke-dasharray: 5.03 5.03;
      }

      .ap {
        stroke-dasharray: 5.18 5.18;
      }

      .aq {
        stroke-dasharray: 4.96 4.96;
      }

      .ar {
        stroke: #004a5b;
      }

      .ai, .ak {
        fill: #fff;
      }

      .av {
        fill: #f7931e;
      }

      .aj {
        fill: #0084a3;
        font-size: 9px;
      }

      .aw {
        fill: #00a59d;
        letter-spacing: .02em;
      }

      .at {
        stroke: #ad1215;
      }
    </style>
  </defs>
  <g id="a" data-name="Grid">
    <line class="ar" x1=".31" y1="391.25" x2="579.85" y2="391.28"/>
    <line class="ar" x1=".31" y1="295.17" x2="579.85" y2="295.2"/>
    <line class="ar" x1=".31" y1="203.62" x2="579.84" y2="203.65"/>
    <line class="ar" x1=".3" y1="116.87" x2="579.84" y2="116.89"/>
    <line class="am" x1=".3" y1="33.58" x2="579.83" y2="33.61"/>
    <line class="ar" x1="162.48" y1=".43" x2="153.72" y2="405.15"/>
    <line class="ar" x1="284.84" y1=".43" x2="280.46" y2="405.15"/>
    <line class="ar" x1="392.08" y1=".43" x2="409.42" y2="405.15"/>
    <line class="ar" x1="505.96" y1=".43" x2="542.8" y2="405.15"/>
    <line class="ar" x1="49.33" y1="2.59" x2="23.41" y2="405.15"/>
  </g>
  <g id="b" data-name="Lines">
    <g>
      <line class="as" x1="214.85" y1="166.35" x2="217.28" y2="165.74"/>
      <line class="ap" x1="222.3" y1="164.48" x2="320.24" y2="139.94"/>
      <line class="as" x1="322.75" y1="139.31" x2="325.17" y2="138.7"/>
    </g>
    <g>
      <line class="as" x1="294.95" y1="42.84" x2="293.58" y2="44.94"/>
      <line class="an" x1="290.87" y1="49.08" x2="86.47" y2="362.13"/>
      <line class="as" x1="85.12" y1="364.2" x2="83.75" y2="366.29"/>
    </g>
    <g>
      <line class="as" x1="341.39" y1="77.38" x2="339.73" y2="79.24"/>
      <line class="aq" x1="336.43" y1="82.95" x2="87.07" y2="362.58"/>
      <line class="as" x1="85.41" y1="364.43" x2="83.75" y2="366.29"/>
    </g>
    <g>
      <line class="as" x1="346.14" y1="302.64" x2="345.83" y2="300.16"/>
      <line class="al" x1="345.21" y1="295.34" x2="325.8" y2="143.59"/>
      <line class="as" x1="325.49" y1="141.18" x2="325.17" y2="138.7"/>
    </g>
    <g>
      <line class="as" x1="346.14" y1="302.64" x2="348.64" y2="302.75"/>
      <line class="ao" x1="353.67" y1="302.99" x2="431.56" y2="306.61"/>
      <line class="as" x1="434.07" y1="306.73" x2="436.57" y2="306.85"/>
    </g>
  </g>
  <g id="c" data-name="Points">
    <g id="d" data-name="M2">
      <path class="av" d="M83.73,375.14c-2.24,0-4.41-.71-6.24-2.05-2.28-1.67-3.78-4.14-4.21-6.94s.25-5.6,1.93-7.88,4.14-3.78,6.94-4.21c2.8-.43,5.6.25,7.88,1.93,2.28,1.67,3.78,4.14,4.21,6.94h0c.43,2.8-.25,5.6-1.93,7.88-1.67,2.28-4.14,3.78-6.94,4.21-.55.08-1.09.13-1.64.13ZM83.77,354.93c-.49,0-.99.04-1.48.11-2.53.39-4.77,1.74-6.28,3.81-1.52,2.07-2.14,4.6-1.75,7.14s1.75,4.77,3.81,6.28c2.07,1.52,4.61,2.13,7.14,1.75,2.54-.39,4.77-1.74,6.28-3.81,1.52-2.07,2.14-4.6,1.75-7.14h0c-.39-2.53-1.75-4.77-3.81-6.28-1.66-1.22-3.63-1.86-5.66-1.86Z"/>
      <circle class="av" cx="83.75" cy="364.53" r="4.75"/>
    </g>
    <g id="e" data-name="M6">
      <path class="av" d="M356.62,300.71c-.43-2.8-1.93-5.26-4.21-6.94-2.28-1.67-5.08-2.36-7.88-1.93s-5.26,1.93-6.94,4.21c-1.67,2.28-2.36,5.08-1.93,7.88s1.93,5.26,4.21,6.94c1.84,1.35,4.01,2.05,6.24,2.05.54,0,1.09-.04,1.64-.13,5.78-.89,9.75-6.31,8.86-12.09ZM347.6,311.81c-2.53.39-5.07-.23-7.14-1.75-2.07-1.52-3.42-3.75-3.81-6.28s.23-5.07,1.75-7.14c1.52-2.07,3.75-3.42,6.28-3.81.5-.08.99-.11,1.48-.11,2.02,0,3.99.64,5.65,1.86,2.07,1.52,3.42,3.75,3.81,6.28.81,5.23-2.79,10.15-8.03,10.95Z"/>
      <path class="av" d="M345.42,297.63c-2.59.4-4.37,2.82-3.97,5.42.4,2.59,2.82,4.37,5.42,3.97s4.37-2.82,3.97-5.42c-.4-2.59-2.82-4.37-5.42-3.97Z"/>
    </g>
    <g id="f" data-name="M5">
      <path class="av" d="M325.16,147.93c-5.14,0-9.66-3.75-10.47-8.99-.43-2.8.25-5.6,1.93-7.88,1.67-2.28,4.14-3.78,6.94-4.21,2.8-.43,5.6.25,7.88,1.93,2.28,1.67,3.78,4.14,4.21,6.94h0c.43,2.8-.25,5.6-1.93,7.88-1.67,2.28-4.14,3.78-6.94,4.21-.54.08-1.09.12-1.62.12ZM325.19,127.72c-.49,0-.99.04-1.48.11-2.53.39-4.77,1.74-6.28,3.81s-2.14,4.6-1.75,7.14c.81,5.23,5.71,8.83,10.95,8.03,2.53-.39,4.77-1.74,6.28-3.81s2.14-4.6,1.75-7.14h0c-.39-2.53-1.75-4.77-3.81-6.28-1.66-1.22-3.63-1.86-5.65-1.86Z"/>
      <circle class="av" cx="325.17" cy="137.32" r="4.75"/>
    </g>
    <g id="g" data-name="M3">
      <path class="av" d="M305.42,39.9c-.89-5.78-6.32-9.75-12.09-8.86-5.78.89-9.75,6.31-8.86,12.09.81,5.23,5.33,8.99,10.47,8.99.54,0,1.08-.04,1.62-.12,5.78-.89,9.75-6.31,8.86-12.09ZM296.41,51c-5.23.8-10.14-2.79-10.95-8.03-.81-5.23,2.79-10.15,8.03-10.95.49-.08.98-.11,1.47-.11,4.65,0,8.75,3.4,9.48,8.14.81,5.23-2.79,10.15-8.03,10.95Z"/>
      <path class="av" d="M294.22,36.82c-2.59.4-4.37,2.82-3.97,5.42s2.82,4.37,5.42,3.97c2.59-.4,4.37-2.82,3.97-5.42-.4-2.59-2.82-4.37-5.42-3.97Z"/>
    </g>
    <g id="h" data-name="M4">
      <path class="av" d="M214.85,175.37c-5.14,0-9.66-3.75-10.47-8.99-.89-5.78,3.08-11.2,8.86-12.09,5.76-.89,11.2,3.08,12.09,8.86h0c.43,2.8-.25,5.6-1.93,7.88-1.67,2.28-4.14,3.78-6.94,4.21-.54.08-1.09.12-1.62.12ZM214.86,155.16c-.48,0-.97.04-1.47.11-5.23.81-8.83,5.72-8.03,10.95.81,5.23,5.72,8.83,10.95,8.03,2.53-.39,4.77-1.74,6.28-3.81s2.14-4.6,1.75-7.14h0c-.73-4.74-4.83-8.14-9.48-8.14Z"/>
      <circle class="av" cx="214.85" cy="164.77" r="4.75"/>
    </g>
    <g id="i" data-name="M1">
      <path class="av" d="M343.41,88.88c-5.14,0-9.66-3.75-10.47-8.99-.89-5.78,3.08-11.2,8.86-12.09,5.77-.89,11.2,3.08,12.09,8.86h0c.89,5.78-3.08,11.2-8.86,12.09-.54.08-1.09.12-1.62.12ZM343.42,68.68c-.48,0-.97.04-1.47.11-5.23.81-8.83,5.72-8.03,10.95.81,5.23,5.72,8.83,10.95,8.03,5.23-.81,8.83-5.72,8.03-10.95-.73-4.74-4.83-8.14-9.48-8.14Z"/>
      <circle class="av" cx="343.42" cy="78.28" r="4.75"/>
    </g>
    <g id="j" data-name="M7">
      <path class="av" d="M445.09,305.41c-.43-2.8-1.93-5.26-4.21-6.94-2.28-1.67-5.08-2.36-7.88-1.93-5.78.89-9.75,6.31-8.86,12.09.81,5.23,5.33,8.99,10.47,8.99.54,0,1.08-.04,1.62-.12,5.78-.89,9.75-6.31,8.86-12.09ZM436.08,316.52c-5.23.81-10.15-2.79-10.95-8.03-.81-5.23,2.79-10.15,8.03-10.95.5-.08.99-.11,1.48-.11,2.02,0,3.99.64,5.66,1.86,2.07,1.52,3.42,3.75,3.81,6.28.81,5.23-2.79,10.15-8.03,10.95Z"/>
      <path class="av" d="M434.01,302.32c-2.6.33-4.44,2.71-4.11,5.31s2.71,4.44,5.31,4.11c2.6-.33,4.44-2.71,4.11-5.31-.33-2.6-2.71-4.44-5.31-4.11Z"/>
    </g>
    <g id="k" data-name="M8">
      <circle class="at" cx="436.57" cy="332.86" r="10.1"/>
      <circle class="av" cx="436.57" cy="332.86" r="4.75"/>
    </g>
  </g>
  <g id="l" data-name="Markers">
    <g id="m" data-name="C3">
      <path class="au" d="M279.01,37.17l-2.77-4.81c-.05-.09-.15-.15-.25-.15h-15.04c-.1,0-.2.06-.25.15l-2.77,4.81c-.05.09-.05.2,0,.29l7.52,13.06c.05.09.15.15.25.15h5.54c.1,0,.2-.06.25-.15l7.52-13.06c.05-.09.05-.2,0-.29ZM278.43,37.32l-7.35,12.77h-5.2l-7.35-12.77,2.6-4.52h14.7l2.6,4.52Z"/>
      <g>
        <rect class="au" x="266.7" y="39.57" width="3.73" height=".79"/>
        <path class="au" d="M268.56,43.35c-1.65.1-3.42-1.4-3.41-3.4,0-1.89,1.59-3.41,3.44-3.4,1.9,0,3.4,1.66,3.42,3.39.02,1.84-1.7,3.55-3.45,3.42ZM265.78,39.94c-.11,1.48,1.27,2.83,2.76,2.83,1.58,0,2.87-1.27,2.86-2.84,0-1.55-1.33-2.78-2.8-2.79-1.66-.02-2.93,1.43-2.83,2.8Z"/>
      </g>
      <path class="au" d="M275.64,35.85c-.44-.77-1.24-1.23-2.13-1.23h-10.06c-.89,0-1.69.46-2.13,1.23-.44.77-.44,1.69,0,2.46l5.03,8.71c.45.77,1.24,1.23,2.13,1.23s1.69-.46,2.13-1.23l5.03-8.71c.44-.77.44-1.69,0-2.46ZM275.14,38.02l-5.03,8.71c-.34.59-.95.94-1.63.94s-1.29-.35-1.63-.94l-5.03-8.71c-.34-.59-.34-1.29,0-1.88.34-.59.95-.94,1.63-.94h10.06c.68,0,1.29.35,1.63.94.34.59.34,1.29,0,1.88Z"/>
    </g>
    <g id="n" data-name="O3">
      <path class="af" d="M255.16,37.17l-2.77-4.81c-.05-.09-.15-.15-.25-.15h-15.04c-.1,0-.2.06-.25.15l-2.77,4.81c-.05.09-.05.2,0,.29l7.52,13.06c.05.09.15.15.25.15h5.54c.1,0,.2-.06.25-.15l7.52-13.06c.05-.09.05-.2,0-.29ZM254.57,37.32l-7.35,12.77h-5.2l-7.35-12.77,2.6-4.52h14.7l2.6,4.52Z"/>
      <g>
        <rect class="af" x="242.84" y="39.57" width="3.73" height=".79"/>
        <path class="af" d="M244.7,43.35c-1.65.1-3.42-1.4-3.41-3.4,0-1.89,1.59-3.41,3.44-3.4,1.9,0,3.4,1.66,3.42,3.39.02,1.84-1.7,3.55-3.45,3.42ZM241.92,39.94c-.11,1.48,1.27,2.83,2.76,2.83,1.58,0,2.87-1.27,2.86-2.84,0-1.55-1.33-2.78-2.8-2.79-1.66-.02-2.93,1.43-2.83,2.8Z"/>
      </g>
      <path class="af" d="M251.78,35.85c-.44-.77-1.24-1.23-2.13-1.23h-10.06c-.89,0-1.69.46-2.13,1.23-.44.77-.44,1.69,0,2.46l5.03,8.71c.45.77,1.24,1.23,2.13,1.23s1.69-.46,2.13-1.23l5.03-8.71c.44-.77.44-1.69,0-2.46ZM251.28,38.02l-5.03,8.71c-.34.59-.95.94-1.63.94s-1.29-.35-1.63-.94l-5.03-8.71c-.34-.59-.34-1.29,0-1.88.34-.59.95-.94,1.63-.94h10.06c.68,0,1.29.35,1.63.94.34.59.34,1.29,0,1.88Z"/>
    </g>
    <g id="o" data-name="O4">
      <path class="af" d="M275.57,160.5l-2.77-4.81c-.05-.09-.15-.15-.25-.15h-15.04c-.1,0-.2.06-.25.15l-2.77,4.81c-.05.09-.05.2,0,.29l7.52,13.06c.05.09.15.15.25.15h5.54c.1,0,.2-.06.25-.15l7.52-13.06c.05-.09.05-.2,0-.29ZM274.99,160.64l-7.35,12.77h-5.2l-7.35-12.77,2.6-4.52h14.7l2.6,4.52Z"/>
      <g>
        <rect class="af" x="263.26" y="162.9" width="3.73" height=".79"/>
        <path class="af" d="M265.12,166.67c-1.65.1-3.42-1.4-3.41-3.4,0-1.89,1.59-3.41,3.44-3.4,1.9,0,3.4,1.66,3.42,3.39.02,1.84-1.7,3.55-3.45,3.42ZM262.34,163.27c-.11,1.48,1.27,2.83,2.76,2.83,1.58,0,2.87-1.27,2.86-2.84,0-1.55-1.33-2.78-2.8-2.79-1.66-.02-2.93,1.43-2.83,2.8Z"/>
      </g>
      <path class="af" d="M272.19,159.18c-.44-.77-1.24-1.23-2.13-1.23h-10.06c-.89,0-1.69.46-2.13,1.23-.44.77-.44,1.69,0,2.46l5.03,8.71c.45.77,1.24,1.23,2.13,1.23s1.69-.46,2.13-1.23l5.03-8.71c.44-.77.44-1.69,0-2.46ZM271.69,161.35l-5.03,8.71c-.34.59-.95.94-1.63.94s-1.29-.35-1.63-.94l-5.03-8.71c-.34-.59-.34-1.29,0-1.88.34-.59.95-.94,1.63-.94h10.06c.68,0,1.29.35,1.63.94.34.59.34,1.29,0,1.88Z"/>
    </g>
    <g id="p" data-name="O5">
      <path class="af" d="M287.73,133.15l-2.77-4.81c-.05-.09-.15-.15-.25-.15h-15.04c-.1,0-.2.06-.25.15l-2.77,4.81c-.05.09-.05.2,0,.29l7.52,13.06c.05.09.15.15.25.15h5.54c.1,0,.2-.06.25-.15l7.52-13.06c.05-.09.05-.2,0-.29ZM287.14,133.29l-7.35,12.77h-5.2l-7.35-12.77,2.6-4.52h14.7l2.6,4.52Z"/>
      <g>
        <rect class="af" x="275.41" y="135.55" width="3.73" height=".79"/>
        <path class="af" d="M277.28,139.32c-1.65.1-3.42-1.4-3.41-3.4,0-1.89,1.59-3.41,3.44-3.4,1.9,0,3.4,1.66,3.42,3.39.02,1.84-1.7,3.55-3.45,3.42ZM274.49,135.91c-.11,1.48,1.27,2.83,2.76,2.83,1.58,0,2.87-1.27,2.86-2.84,0-1.55-1.33-2.78-2.8-2.79-1.66-.02-2.93,1.43-2.83,2.8Z"/>
      </g>
      <path class="af" d="M284.35,131.82c-.44-.77-1.24-1.23-2.13-1.23h-10.06c-.89,0-1.69.46-2.13,1.23-.44.77-.44,1.69,0,2.46l5.03,8.71c.45.77,1.24,1.23,2.13,1.23s1.69-.46,2.13-1.23l5.03-8.71c.44-.77.44-1.69,0-2.46ZM283.85,134l-5.03,8.71c-.34.59-.95.94-1.63.94s-1.29-.35-1.63-.94l-5.03-8.71c-.34-.59-.34-1.29,0-1.88.34-.59.95-.94,1.63-.94h10.06c.68,0,1.29.35,1.63.94.34.59.34,1.29,0,1.88Z"/>
    </g>
    <g id="q" data-name="O4">
      <path class="af" d="M44.01,361.54l-2.77-4.81c-.05-.09-.15-.15-.25-.15h-15.04c-.1,0-.2.06-.25.15l-2.77,4.81c-.05.09-.05.2,0,.29l7.52,13.06c.05.09.15.15.25.15h5.54c.1,0,.2-.06.25-.15l7.52-13.06c.05-.09.05-.2,0-.29ZM43.42,361.69l-7.35,12.77h-5.2l-7.35-12.77,2.6-4.52h14.7l2.6,4.52Z"/>
      <g>
        <rect class="af" x="31.69" y="363.95" width="3.73" height=".79"/>
        <path class="af" d="M33.55,367.72c-1.65.1-3.42-1.4-3.41-3.4,0-1.89,1.59-3.41,3.44-3.4,1.9,0,3.4,1.66,3.42,3.39.02,1.84-1.7,3.55-3.45,3.42ZM30.77,364.31c-.11,1.48,1.27,2.83,2.76,2.83,1.58,0,2.87-1.27,2.86-2.84,0-1.55-1.33-2.78-2.8-2.79-1.66-.02-2.93,1.43-2.83,2.8Z"/>
      </g>
      <path class="af" d="M40.63,360.22c-.44-.77-1.24-1.23-2.13-1.23h-10.06c-.89,0-1.69.46-2.13,1.23-.44.77-.44,1.69,0,2.46l5.03,8.71c.45.77,1.24,1.23,2.13,1.23s1.69-.46,2.13-1.23l5.03-8.71c.44-.77.44-1.69,0-2.46ZM40.13,362.39l-5.03,8.71c-.34.59-.95.94-1.63.94s-1.29-.35-1.63-.94l-5.03-8.71c-.34-.59-.34-1.29,0-1.88.34-.59.95-.94,1.63-.94h10.06c.68,0,1.29.35,1.63.94.34.59.34,1.29,0,1.88Z"/>
    </g>
    <g id="r" data-name="C1">
      <path class="au" d="M328.81,74.29l-2.77-4.81c-.05-.09-.15-.15-.25-.15h-15.04c-.1,0-.2.06-.25.15l-2.77,4.81c-.05.09-.05.2,0,.29l7.52,13.06c.05.09.15.15.25.15h5.54c.1,0,.2-.06.25-.15l7.52-13.06c.05-.09.05-.2,0-.29ZM328.22,74.44l-7.35,12.77h-5.2l-7.35-12.77,2.6-4.52h14.7l2.6,4.52Z"/>
      <g>
        <rect class="au" x="316.49" y="76.7" width="3.73" height=".79"/>
        <path class="au" d="M318.36,80.47c-1.65.1-3.42-1.4-3.41-3.4,0-1.89,1.59-3.41,3.44-3.4,1.9,0,3.4,1.66,3.42,3.39.02,1.84-1.7,3.55-3.45,3.42ZM315.57,77.06c-.11,1.48,1.27,2.83,2.76,2.83,1.58,0,2.87-1.27,2.86-2.84,0-1.55-1.33-2.78-2.8-2.79-1.66-.02-2.93,1.43-2.83,2.8Z"/>
      </g>
      <path class="au" d="M325.43,72.97c-.44-.77-1.24-1.23-2.13-1.23h-10.06c-.89,0-1.69.46-2.13,1.23-.44.77-.44,1.69,0,2.46l5.03,8.71c.45.77,1.24,1.23,2.13,1.23s1.69-.46,2.13-1.23l5.03-8.71c.44-.77.44-1.69,0-2.46ZM324.93,75.14l-5.03,8.71c-.34.59-.95.94-1.63.94s-1.29-.35-1.63-.94l-5.03-8.71c-.34-.59-.34-1.29,0-1.88.34-.59.95-.94,1.63-.94h10.06c.68,0,1.29.35,1.63.94.34.59.34,1.29,0,1.88Z"/>
    </g>
    <g id="s" data-name="C6">
      <path class="au" d="M345.3,321.58l-2.77-4.81c-.05-.09-.15-.15-.25-.15h-15.04c-.1,0-.2.06-.25.15l-2.77,4.81c-.05.09-.05.2,0,.29l7.52,13.06c.05.09.15.15.25.15h5.54c.1,0,.2-.06.25-.15l7.52-13.06c.05-.09.05-.2,0-.29ZM344.71,321.73l-7.35,12.77h-5.2l-7.35-12.77,2.6-4.52h14.7l2.6,4.52Z"/>
      <g>
        <rect class="au" x="332.98" y="323.99" width="3.73" height=".79"/>
        <path class="au" d="M334.85,327.76c-1.65.1-3.42-1.4-3.41-3.4,0-1.89,1.59-3.41,3.44-3.4,1.9,0,3.4,1.66,3.42,3.39.02,1.84-1.7,3.55-3.45,3.42ZM332.06,324.35c-.11,1.48,1.27,2.83,2.76,2.83,1.58,0,2.87-1.27,2.86-2.84,0-1.55-1.33-2.78-2.8-2.79-1.66-.02-2.93,1.43-2.83,2.8Z"/>
      </g>
      <path class="au" d="M341.92,320.26c-.44-.77-1.24-1.23-2.13-1.23h-10.06c-.89,0-1.69.46-2.13,1.23-.44.77-.44,1.69,0,2.46l5.03,8.71c.45.77,1.24,1.23,2.13,1.23s1.69-.46,2.13-1.23l5.03-8.71c.44-.77.44-1.69,0-2.46ZM341.42,322.43l-5.03,8.71c-.34.59-.95.94-1.63.94s-1.29-.35-1.63-.94l-5.03-8.71c-.34-.59-.34-1.29,0-1.88.34-.59.95-.94,1.63-.94h10.06c.68,0,1.29.35,1.63.94.34.59.34,1.29,0,1.88Z"/>
    </g>
    <g id="t" data-name="O6">
      <path class="af" d="M369.52,321.58l-2.77-4.81c-.05-.09-.15-.15-.25-.15h-15.04c-.1,0-.2.06-.25.15l-2.77,4.81c-.05.09-.05.2,0,.29l7.52,13.06c.05.09.15.15.25.15h5.54c.1,0,.2-.06.25-.15l7.52-13.06c.05-.09.05-.2,0-.29ZM368.94,321.73l-7.35,12.77h-5.2l-7.35-12.77,2.6-4.52h14.7l2.6,4.52Z"/>
      <g>
        <rect class="af" x="357.21" y="323.99" width="3.73" height=".79"/>
        <path class="af" d="M359.07,327.76c-1.65.1-3.42-1.4-3.41-3.4,0-1.89,1.59-3.41,3.44-3.4,1.9,0,3.4,1.66,3.42,3.39.02,1.84-1.7,3.55-3.45,3.42ZM356.29,324.35c-.11,1.48,1.27,2.83,2.76,2.83,1.58,0,2.87-1.27,2.86-2.84,0-1.55-1.33-2.78-2.8-2.79-1.66-.02-2.93,1.43-2.83,2.8Z"/>
      </g>
      <path class="af" d="M366.14,320.26c-.44-.77-1.24-1.23-2.13-1.23h-10.06c-.89,0-1.69.46-2.13,1.23-.44.77-.44,1.69,0,2.46l5.03,8.71c.45.77,1.24,1.23,2.13,1.23s1.69-.46,2.13-1.23l5.03-8.71c.44-.77.44-1.69,0-2.46ZM365.64,322.43l-5.03,8.71c-.34.59-.95.94-1.63.94s-1.29-.35-1.63-.94l-5.03-8.71c-.34-.59-.34-1.29,0-1.88.34-.59.95-.94,1.63-.94h10.06c.68,0,1.29.35,1.63.94.34.59.34,1.29,0,1.88Z"/>
    </g>
    <g id="u" data-name="O3">
      <path class="af" d="M304.86,74.29l-2.77-4.81c-.05-.09-.15-.15-.25-.15h-15.04c-.1,0-.2.06-.25.15l-2.77,4.81c-.05.09-.05.2,0,.29l7.52,13.06c.05.09.15.15.25.15h5.54c.1,0,.2-.06.25-.15l7.52-13.06c.05-.09.05-.2,0-.29ZM304.27,74.44l-7.35,12.77h-5.2l-7.35-12.77,2.6-4.52h14.7l2.6,4.52Z"/>
      <g>
        <rect class="af" x="292.54" y="76.7" width="3.73" height=".79"/>
        <path class="af" d="M294.41,80.47c-1.65.1-3.42-1.4-3.41-3.4,0-1.89,1.59-3.41,3.44-3.4,1.9,0,3.4,1.66,3.42,3.39.02,1.84-1.7,3.55-3.45,3.42ZM291.62,77.06c-.11,1.48,1.27,2.83,2.76,2.83,1.58,0,2.87-1.27,2.86-2.84,0-1.55-1.33-2.78-2.8-2.79-1.66-.02-2.93,1.43-2.83,2.8Z"/>
      </g>
      <path class="af" d="M301.48,72.97c-.44-.77-1.24-1.23-2.13-1.23h-10.06c-.89,0-1.69.46-2.13,1.23-.44.77-.44,1.69,0,2.46l5.03,8.71c.45.77,1.24,1.23,2.13,1.23s1.69-.46,2.13-1.23l5.03-8.71c.44-.77.44-1.69,0-2.46ZM300.98,75.14l-5.03,8.71c-.34.59-.95.94-1.63.94s-1.29-.35-1.63-.94l-5.03-8.71c-.34-.59-.34-1.29,0-1.88.34-.59.95-.94,1.63-.94h10.06c.68,0,1.29.35,1.63.94.34.59.34,1.29,0,1.88Z"/>
    </g>
    <g id="v" data-name="C7">
      <path class="au" d="M434.38,280.59l-2.77-4.81c-.05-.09-.15-.15-.25-.15h-15.04c-.1,0-.2.06-.25.15l-2.77,4.81c-.05.09-.05.2,0,.29l7.52,13.06c.05.09.15.15.25.15h5.54c.1,0,.2-.06.25-.15l7.52-13.06c.05-.09.05-.2,0-.29ZM433.8,280.74l-7.35,12.77h-5.2l-7.35-12.77,2.6-4.52h14.7l2.6,4.52Z"/>
      <g>
        <rect class="au" x="422.07" y="283" width="3.73" height=".79"/>
        <path class="au" d="M423.93,286.77c-1.65.1-3.42-1.4-3.41-3.4,0-1.89,1.59-3.41,3.44-3.4,1.9,0,3.4,1.66,3.42,3.39.02,1.84-1.7,3.55-3.45,3.42ZM421.15,283.36c-.11,1.48,1.27,2.83,2.76,2.83,1.58,0,2.87-1.27,2.86-2.84,0-1.55-1.33-2.78-2.8-2.79-1.66-.02-2.93,1.43-2.83,2.8Z"/>
      </g>
      <path class="au" d="M431,279.27c-.44-.77-1.24-1.23-2.13-1.23h-10.06c-.89,0-1.69.46-2.13,1.23-.44.77-.44,1.69,0,2.46l5.03,8.71c.45.77,1.24,1.23,2.13,1.23s1.69-.46,2.13-1.23l5.03-8.71c.44-.77.44-1.69,0-2.46ZM430.5,281.45l-5.03,8.71c-.34.59-.95.94-1.63.94s-1.29-.35-1.63-.94l-5.03-8.71c-.34-.59-.34-1.29,0-1.88.34-.59.95-.94,1.63-.94h10.06c.68,0,1.29.35,1.63.94.34.59.34,1.29,0,1.88Z"/>
    </g>
    <g id="w" data-name="O7">
      <path class="au" d="M471.06,328.59l-2.77-4.81c-.05-.09-.15-.15-.25-.15h-15.04c-.1,0-.2.06-.25.15l-2.77,4.81c-.05.09-.05.2,0,.29l7.52,13.06c.05.09.15.15.25.15h5.54c.1,0,.2-.06.25-.15l7.52-13.06c.05-.09.05-.2,0-.29ZM470.47,328.73l-7.35,12.77h-5.2l-7.35-12.77,2.6-4.52h14.7l2.6,4.52Z"/>
      <g>
        <rect class="au" x="458.74" y="330.99" width="3.73" height=".79"/>
        <path class="au" d="M460.6,334.76c-1.65.1-3.42-1.4-3.41-3.4,0-1.89,1.59-3.41,3.44-3.4,1.9,0,3.4,1.66,3.42,3.39.02,1.84-1.7,3.55-3.45,3.42ZM457.82,331.36c-.11,1.48,1.27,2.83,2.76,2.83,1.58,0,2.87-1.27,2.86-2.84,0-1.55-1.33-2.78-2.8-2.79-1.66-.02-2.93,1.43-2.83,2.8Z"/>
      </g>
      <path class="au" d="M467.68,327.27c-.44-.77-1.24-1.23-2.13-1.23h-10.06c-.89,0-1.69.46-2.13,1.23-.44.77-.44,1.69,0,2.46l5.03,8.71c.45.77,1.24,1.23,2.13,1.23s1.69-.46,2.13-1.23l5.03-8.71c.44-.77.44-1.69,0-2.46ZM467.18,329.44l-5.03,8.71c-.34.59-.95.94-1.63.94s-1.29-.35-1.63-.94l-5.03-8.71c-.34-.59-.34-1.29,0-1.88.34-.59.95-.94,1.63-.94h10.06c.68,0,1.29.35,1.63.94.34.59.34,1.29,0,1.88Z"/>
    </g>
    <g id="x" data-name="O7">
      <path class="af" d="M458.5,280.59l-2.77-4.81c-.05-.09-.15-.15-.25-.15h-15.04c-.1,0-.2.06-.25.15l-2.77,4.81c-.05.09-.05.2,0,.29l7.52,13.06c.05.09.15.15.25.15h5.54c.1,0,.2-.06.25-.15l7.52-13.06c.05-.09.05-.2,0-.29ZM457.92,280.74l-7.35,12.77h-5.2l-7.35-12.77,2.6-4.52h14.7l2.6,4.52Z"/>
      <g>
        <rect class="af" x="446.19" y="283" width="3.73" height=".79"/>
        <path class="af" d="M448.05,286.77c-1.65.1-3.42-1.4-3.41-3.4,0-1.89,1.59-3.41,3.44-3.4,1.9,0,3.4,1.66,3.42,3.39.02,1.84-1.7,3.55-3.45,3.42ZM445.27,283.36c-.11,1.48,1.27,2.83,2.76,2.83,1.58,0,2.87-1.27,2.86-2.84,0-1.55-1.33-2.78-2.8-2.79-1.66-.02-2.93,1.43-2.83,2.8Z"/>
      </g>
      <path class="af" d="M455.13,279.27c-.44-.77-1.24-1.23-2.13-1.23h-10.06c-.89,0-1.69.46-2.13,1.23-.44.77-.44,1.69,0,2.46l5.03,8.71c.45.77,1.24,1.23,2.13,1.23s1.69-.46,2.13-1.23l5.03-8.71c.44-.77.44-1.69,0-2.46ZM454.63,281.45l-5.03,8.71c-.34.59-.95.94-1.63.94s-1.29-.35-1.63-.94l-5.03-8.71c-.34-.59-.34-1.29,0-1.88.34-.59.95-.94,1.63-.94h10.06c.68,0,1.29.35,1.63.94.34.59.34,1.29,0,1.88Z"/>
    </g>
    <g id="y" data-name="O8">
      <path class="af" d="M494.94,328.59l-2.77-4.81c-.05-.09-.15-.15-.25-.15h-15.04c-.1,0-.2.06-.25.15l-2.77,4.81c-.05.09-.05.2,0,.29l7.52,13.06c.05.09.15.15.25.15h5.54c.1,0,.2-.06.25-.15l7.52-13.06c.05-.09.05-.2,0-.29ZM494.35,328.73l-7.35,12.77h-5.2l-7.35-12.77,2.6-4.52h14.7l2.6,4.52Z"/>
      <g>
        <rect class="af" x="482.62" y="330.99" width="3.73" height=".79"/>
        <path class="af" d="M484.49,334.76c-1.65.1-3.42-1.4-3.41-3.4,0-1.89,1.59-3.41,3.44-3.4,1.9,0,3.4,1.66,3.42,3.39.02,1.84-1.7,3.55-3.45,3.42ZM481.7,331.36c-.11,1.48,1.27,2.83,2.76,2.83,1.58,0,2.87-1.27,2.86-2.84,0-1.55-1.33-2.78-2.8-2.79-1.66-.02-2.93,1.43-2.83,2.8Z"/>
      </g>
      <path class="af" d="M491.56,327.27c-.44-.77-1.24-1.23-2.13-1.23h-10.06c-.89,0-1.69.46-2.13,1.23-.44.77-.44,1.69,0,2.46l5.03,8.71c.45.77,1.24,1.23,2.13,1.23s1.69-.46,2.13-1.23l5.03-8.71c.44-.77.44-1.69,0-2.46ZM491.06,329.44l-5.03,8.71c-.34.59-.95.94-1.63.94s-1.29-.35-1.63-.94l-5.03-8.71c-.34-.59-.34-1.29,0-1.88.34-.59.95-.94,1.63-.94h10.06c.68,0,1.29.35,1.63.94.34.59.34,1.29,0,1.88Z"/>
    </g>
    <g id="z" data-name="C4">
      <path class="au" d="M251.1,160.5l-2.77-4.81c-.05-.09-.15-.15-.25-.15h-15.04c-.1,0-.2.06-.25.15l-2.77,4.81c-.05.09-.05.2,0,.29l7.52,13.06c.05.09.15.15.25.15h5.54c.1,0,.2-.06.25-.15l7.52-13.06c.05-.09.05-.2,0-.29ZM250.52,160.64l-7.35,12.77h-5.2l-7.35-12.77,2.6-4.52h14.7l2.6,4.52Z"/>
      <g>
        <rect class="au" x="238.78" y="162.9" width="3.73" height=".79"/>
        <path class="au" d="M240.65,166.67c-1.65.1-3.42-1.4-3.41-3.4,0-1.89,1.59-3.41,3.44-3.4,1.9,0,3.4,1.66,3.42,3.39.02,1.84-1.7,3.55-3.45,3.42ZM237.87,163.27c-.11,1.48,1.27,2.83,2.76,2.83,1.58,0,2.87-1.27,2.86-2.84,0-1.55-1.33-2.78-2.8-2.79-1.66-.02-2.93,1.43-2.83,2.8Z"/>
      </g>
      <path class="au" d="M247.72,159.18c-.44-.77-1.24-1.23-2.13-1.23h-10.06c-.89,0-1.69.46-2.13,1.23-.44.77-.44,1.69,0,2.46l5.03,8.71c.45.77,1.24,1.23,2.13,1.23s1.69-.46,2.13-1.23l5.03-8.71c.44-.77.44-1.69,0-2.46ZM247.22,161.35l-5.03,8.71c-.34.59-.95.94-1.63.94s-1.29-.35-1.63-.94l-5.03-8.71c-.34-.59-.34-1.29,0-1.88.34-.59.95-.94,1.63-.94h10.06c.68,0,1.29.35,1.63.94.34.59.34,1.29,0,1.88Z"/>
    </g>
    <g id="aa" data-name="C2">
      <path class="au" d="M68.95,361.54l-2.77-4.81c-.05-.09-.15-.15-.25-.15h-15.04c-.1,0-.2.06-.25.15l-2.77,4.81c-.05.09-.05.2,0,.29l7.52,13.06c.05.09.15.15.25.15h5.54c.1,0,.2-.06.25-.15l7.52-13.06c.05-.09.05-.2,0-.29ZM68.36,361.69l-7.35,12.77h-5.2l-7.35-12.77,2.6-4.52h14.7l2.6,4.52Z"/>
      <g>
        <rect class="au" x="56.63" y="363.95" width="3.73" height=".79"/>
        <path class="au" d="M58.5,367.72c-1.65.1-3.42-1.4-3.41-3.4,0-1.89,1.59-3.41,3.44-3.4,1.9,0,3.4,1.66,3.42,3.39.02,1.84-1.7,3.55-3.45,3.42ZM55.72,364.31c-.11,1.48,1.27,2.83,2.76,2.83,1.58,0,2.87-1.27,2.86-2.84,0-1.55-1.33-2.78-2.8-2.79-1.66-.02-2.93,1.43-2.83,2.8Z"/>
      </g>
      <path class="au" d="M65.57,360.22c-.44-.77-1.24-1.23-2.13-1.23h-10.06c-.89,0-1.69.46-2.13,1.23-.44.77-.44,1.69,0,2.46l5.03,8.71c.45.77,1.24,1.23,2.13,1.23s1.69-.46,2.13-1.23l5.03-8.71c.44-.77.44-1.69,0-2.46ZM65.07,362.39l-5.03,8.71c-.34.59-.95.94-1.63.94s-1.29-.35-1.63-.94l-5.03-8.71c-.34-.59-.34-1.29,0-1.88.34-.59.95-.94,1.63-.94h10.06c.68,0,1.29.35,1.63.94.34.59.34,1.29,0,1.88Z"/>
    </g>
    <g id="ab" data-name="C5">
      <path class="au" d="M310.06,133.15l-2.77-4.81c-.05-.09-.15-.15-.25-.15h-15.04c-.1,0-.2.06-.25.15l-2.77,4.81c-.05.09-.05.2,0,.29l7.52,13.06c.05.09.15.15.25.15h5.54c.1,0,.2-.06.25-.15l7.52-13.06c.05-.09.05-.2,0-.29ZM309.48,133.29l-7.35,12.77h-5.2l-7.35-12.77,2.6-4.52h14.7l2.6,4.52Z"/>
      <g>
        <rect class="au" x="297.75" y="135.55" width="3.73" height=".79"/>
        <path class="au" d="M299.61,139.32c-1.65.1-3.42-1.4-3.41-3.4,0-1.89,1.59-3.41,3.44-3.4,1.9,0,3.4,1.66,3.42,3.39.02,1.84-1.7,3.55-3.45,3.42ZM296.83,135.91c-.11,1.48,1.27,2.83,2.76,2.83,1.58,0,2.87-1.27,2.86-2.84,0-1.55-1.33-2.78-2.8-2.79-1.66-.02-2.93,1.43-2.83,2.8Z"/>
      </g>
      <path class="au" d="M306.68,131.82c-.44-.77-1.24-1.23-2.13-1.23h-10.06c-.89,0-1.69.46-2.13,1.23-.44.77-.44,1.69,0,2.46l5.03,8.71c.45.77,1.24,1.23,2.13,1.23s1.69-.46,2.13-1.23l5.03-8.71c.44-.77.44-1.69,0-2.46ZM306.18,134l-5.03,8.71c-.34.59-.95.94-1.63.94s-1.29-.35-1.63-.94l-5.03-8.71c-.34-.59-.34-1.29,0-1.88.34-.59.95-.94,1.63-.94h10.06c.68,0,1.29.35,1.63.94.34.59.34,1.29,0,1.88Z"/>
    </g>
  </g>
  <g id="ac" data-name="Font">
    <text class="aj" transform="translate(46.94 216.87)"><tspan x="0" y="0">0:107:200</tspan></text>
    <text class="aj" transform="translate(168.69 216.87)"><tspan x="0" y="0">0:107:200</tspan></text>
    <text class="ai" transform="translate(310.03 45.52)"><tspan x="0" y="0">VODYAKAMANA</tspan></text>
    <text class="ai" transform="translate(357.35 82.28)"><tspan x="0" y="0">NUKAMBA</tspan></text>
    <text class="ai" transform="translate(154.06 168.77)"><tspan x="0" y="0">MARFIC</tspan></text>
    <text class="ai" transform="translate(339.39 141.33)"><tspan x="0" y="0">UPANIKLIS</tspan></text>
    <text class="ai" transform="translate(99.79 368.53)"><tspan x="0" y="0">GRAFFIAS</tspan></text>
    <text class="ai" transform="translate(279.15 306.74)"><tspan x="0" y="0">HR 6524</tspan></text>
    <text class="ai" transform="translate(449.36 305.25)"><tspan x="0" y="0">COL 359 SECTOR </tspan><tspan x="0" y="11">AE-N B9-4</tspan></text>
    <text class="ag" transform="translate(407.82 357.77)"><tspan class="ak"><tspan x="0" y="0">HIP 87621</tspan></tspan><tspan class="aw"><tspan x="-5.89" y="14.4">Permit Locked</tspan></tspan></text>
    <text class="aj" transform="translate(290.55 216.87)"><tspan x="0" y="0">200:107:200</tspan></text>
    <text class="aj" transform="translate(410.27 216.87)"><tspan x="0" y="0">300:107:200</tspan></text>
  </g>
  <g id="ad" data-name="Legend">
    <g>
      <path class="au" d="M36.34,20.31l-2.03-3.52c-.04-.07-.11-.11-.18-.11h-11.02c-.08,0-.15.04-.18.11l-2.03,3.52c-.04.07-.04.15,0,.21l5.51,9.57c.04.07.11.11.18.11h4.06c.08,0,.15-.04.18-.11l5.51-9.57c.04-.07.04-.15,0-.21ZM35.91,20.42l-5.39,9.35h-3.81l-5.39-9.35,1.91-3.31h10.77l1.91,3.31Z"/>
      <g>
        <rect class="au" x="27.32" y="22.07" width="2.73" height=".58"/>
        <path class="au" d="M28.69,24.84c-1.21.07-2.5-1.02-2.5-2.49,0-1.38,1.16-2.5,2.52-2.49,1.39,0,2.49,1.22,2.51,2.48.02,1.35-1.25,2.6-2.53,2.5ZM26.65,22.34c-.08,1.09.93,2.07,2.02,2.07,1.16,0,2.11-.93,2.1-2.08,0-1.13-.97-2.03-2.05-2.05-1.21-.01-2.15,1.04-2.07,2.05Z"/>
      </g>
      <path class="au" d="M33.87,19.34c-.33-.56-.91-.9-1.56-.9h-7.37c-.65,0-1.24.34-1.56.9-.33.56-.33,1.24,0,1.8l3.69,6.38c.33.56.91.9,1.56.9s1.23-.34,1.56-.9l3.69-6.38c.33-.57.32-1.24,0-1.8ZM33.5,20.94l-3.69,6.38c-.25.43-.7.69-1.19.69s-.94-.26-1.19-.69l-3.69-6.38c-.25-.43-.25-.95,0-1.38.25-.43.7-.69,1.19-.69h7.37c.5,0,.94.26,1.19.69.25.43.25.95,0,1.38Z"/>
    </g>
    <g>
      <path class="af" d="M36.34,41.38l-2.03-3.52c-.04-.07-.11-.11-.18-.11h-11.02c-.08,0-.15.04-.18.11l-2.03,3.52c-.04.07-.04.15,0,.21l5.51,9.57c.04.07.11.11.18.11h4.06c.08,0,.15-.04.18-.11l5.51-9.57c.04-.07.04-.15,0-.21ZM35.91,41.49l-5.39,9.35h-3.81l-5.39-9.35,1.91-3.31h10.77l1.91,3.31Z"/>
      <g>
        <rect class="af" x="27.32" y="43.14" width="2.73" height=".58"/>
        <path class="af" d="M28.69,45.91c-1.21.07-2.5-1.02-2.5-2.49,0-1.38,1.16-2.5,2.52-2.49,1.39,0,2.49,1.22,2.51,2.48.02,1.35-1.25,2.6-2.53,2.5ZM26.65,43.41c-.08,1.09.93,2.07,2.02,2.07,1.16,0,2.11-.93,2.1-2.08,0-1.13-.97-2.03-2.05-2.05-1.21-.01-2.15,1.04-2.07,2.05Z"/>
      </g>
      <path class="af" d="M33.87,40.42c-.33-.56-.91-.9-1.56-.9h-7.37c-.65,0-1.24.34-1.56.9-.33.56-.33,1.24,0,1.8l3.69,6.38c.33.56.91.9,1.56.9s1.23-.34,1.56-.9l3.69-6.38c.33-.57.32-1.24,0-1.8ZM33.5,42.01l-3.69,6.38c-.25.43-.7.69-1.19.69s-.94-.26-1.19-.69l-3.69-6.38c-.25-.43-.25-.95,0-1.38.25-.43.7-.69,1.19-.69h7.37c.5,0,.94.26,1.19.69.25.43.25.95,0,1.38Z"/>
    </g>
    <text class="ah" transform="translate(42.41 27.52)"><tspan x="0" y="0">CYGNUS</tspan></text>
    <text class="ae" transform="translate(42.41 48.59)"><tspan x="0" y="0">THE ORION</tspan></text>
  </g>
</svg>