<?xml version="1.0" encoding="UTF-8"?>
<svg xmlns="http://www.w3.org/2000/svg" viewBox="0 0 661.05 457.58">
  <defs>
    <style>
      .ae, .af {
        fill: aqua;
      }

      .ae, .ag, .ah, .ai {
        font-size: 12px;
      }

      .ae, .ag, .ah, .ai, .aj {
        font-family: EurostileRegular, Eurostile;
      }

      .ae, .ah, .ai, .ak {
        letter-spacing: .06em;
      }

      .al {
        stroke-dasharray: 4.86 4.86;
      }

      .al, .am, .an, .ao, .ap, .aq, .ar, .as, .at {
        fill: none;
        stroke-miterlimit: 10;
      }

      .al, .an, .ao, .ap, .aq, .as {
        stroke: #ff931e;
      }

      .am {
        stroke: #004a5b;
      }

      .an {
        stroke-dasharray: 4.95 4.95;
      }

      .ah, .au {
        fill: lime;
      }

      .ao {
        stroke-dasharray: 5.03 5.03;
      }

      .ap {
        stroke-dasharray: 5.18 5.18;
      }

      .aq {
        stroke-dasharray: 4.96 4.96;
      }

      .ar {
        stroke: #004a5b;
      }

      .ai, .ak {
        fill: #fff;
      }

      .av {
        fill: #f7931e;
      }

      .aj {
        fill: #0084a3;
        font-size: 9px;
      }

      .aw {
        fill: #00a59d;
        letter-spacing: .02em;
      }

      .at {
        stroke: #ad1215;
      }
    </style>
  </defs>
  <g id="a" data-name="Grid">
    <line class="ar" x1="24.3" y1="414.28" x2="620.6" y2="414.28"/>
    <line class="ar" x1="24.3" y1="318.2" x2="620.6" y2="318.2"/>
    <line class="ar" x1="24.3" y1="226.65" x2="620.6" y2="226.65"/>
    <line class="ar" x1="24.3" y1="139.9" x2="620.6" y2="139.9"/>
    <line class="am" x1="24.3" y1="56.61" x2="620.6" y2="56.61"/>
    <line class="ar" x1="191.19" y1="23.45" x2="182.43" y2="428.17"/>
    <line class="ar" x1="313.56" y1="23.45" x2="309.18" y2="428.17"/>
    <line class="ar" x1="420.79" y1="23.45" x2="438.13" y2="428.17"/>
    <line class="ar" x1="534.67" y1="23.45" x2="571.51" y2="428.17"/>
    <line class="ar" x1="78.04" y1="25.61" x2="52.12" y2="428.17"/>
  </g>
  <g id="b" data-name="Lines">
    <g>
      <line class="as" x1="243.56" y1="189.37" x2="245.99" y2="188.76"/>
      <line class="ap" x1="251.01" y1="187.51" x2="348.95" y2="162.96"/>
      <line class="as" x1="351.46" y1="162.33" x2="353.88" y2="161.72"/>
    </g>
    <g>
      <line class="as" x1="323.66" y1="65.87" x2="322.29" y2="67.96"/>
      <line class="an" x1="319.58" y1="72.11" x2="115.18" y2="385.15"/>
      <line class="as" x1="113.83" y1="387.22" x2="112.46" y2="389.32"/>
    </g>
    <g>
      <line class="as" x1="370.11" y1="100.4" x2="368.44" y2="102.27"/>
      <line class="aq" x1="365.14" y1="105.97" x2="115.78" y2="385.6"/>
      <line class="as" x1="114.13" y1="387.45" x2="112.46" y2="389.32"/>
    </g>
    <g>
      <line class="as" x1="374.85" y1="325.66" x2="374.54" y2="323.18"/>
      <line class="al" x1="373.92" y1="318.36" x2="354.51" y2="166.61"/>
      <line class="as" x1="354.2" y1="164.2" x2="353.88" y2="161.72"/>
    </g>
    <g>
      <line class="as" x1="374.85" y1="325.66" x2="377.35" y2="325.77"/>
      <line class="ao" x1="382.38" y1="326.01" x2="460.27" y2="329.64"/>
      <line class="as" x1="462.79" y1="329.75" x2="465.28" y2="329.87"/>
    </g>
  </g>
  <g id="c" data-name="Points">
    <g id="d" data-name="M2">
      <path class="av" d="M112.44,398.16c-2.24,0-4.41-.71-6.24-2.05-2.28-1.67-3.78-4.14-4.21-6.94s.25-5.6,1.93-7.88,4.14-3.78,6.94-4.21c2.8-.43,5.6.25,7.88,1.93,2.28,1.67,3.78,4.14,4.21,6.94h0c.43,2.8-.25,5.6-1.93,7.88-1.67,2.28-4.14,3.78-6.94,4.21-.55.08-1.09.13-1.64.13ZM112.48,377.95c-.49,0-.99.04-1.48.11-2.53.39-4.77,1.74-6.28,3.81-1.52,2.07-2.14,4.6-1.75,7.14s1.75,4.77,3.81,6.28c2.07,1.52,4.61,2.13,7.14,1.75,2.54-.39,4.77-1.74,6.28-3.81,1.52-2.07,2.14-4.6,1.75-7.14h0c-.39-2.53-1.75-4.77-3.81-6.28-1.66-1.22-3.63-1.86-5.66-1.86Z"/>
      <circle class="av" cx="112.46" cy="387.56" r="4.75"/>
    </g>
    <g id="e" data-name="M6">
      <path class="av" d="M385.33,323.73c-.43-2.8-1.93-5.26-4.21-6.94-2.28-1.67-5.08-2.36-7.88-1.93s-5.26,1.93-6.94,4.21c-1.67,2.28-2.36,5.08-1.93,7.88s1.93,5.26,4.21,6.94c1.84,1.35,4.01,2.05,6.24,2.05.54,0,1.09-.04,1.64-.13,5.78-.89,9.75-6.31,8.86-12.09ZM376.32,334.84c-2.53.39-5.07-.23-7.14-1.75-2.07-1.52-3.42-3.75-3.81-6.28s.23-5.07,1.75-7.14c1.52-2.07,3.75-3.42,6.28-3.81.5-.08.99-.11,1.48-.11,2.02,0,3.99.64,5.65,1.86,2.07,1.52,3.42,3.75,3.81,6.28.81,5.23-2.79,10.15-8.03,10.95Z"/>
      <path class="av" d="M374.13,320.66c-2.59.4-4.37,2.82-3.97,5.42.4,2.59,2.82,4.37,5.42,3.97s4.37-2.82,3.97-5.42c-.4-2.59-2.82-4.37-5.42-3.97Z"/>
    </g>
    <g id="f" data-name="M5">
      <path class="av" d="M353.88,170.95c-5.14,0-9.66-3.75-10.47-8.99-.43-2.8.25-5.6,1.93-7.88,1.67-2.28,4.14-3.78,6.94-4.21,2.8-.43,5.6.25,7.88,1.93,2.28,1.67,3.78,4.14,4.21,6.94h0c.43,2.8-.25,5.6-1.93,7.88-1.67,2.28-4.14,3.78-6.94,4.21-.54.08-1.09.12-1.62.12ZM353.9,150.74c-.49,0-.99.04-1.48.11-2.53.39-4.77,1.74-6.28,3.81s-2.14,4.6-1.75,7.14c.81,5.23,5.71,8.83,10.95,8.03,2.53-.39,4.77-1.74,6.28-3.81s2.14-4.6,1.75-7.14h0c-.39-2.53-1.75-4.77-3.81-6.28-1.66-1.22-3.63-1.86-5.65-1.86Z"/>
      <circle class="av" cx="353.88" cy="160.35" r="4.75"/>
    </g>
    <g id="g" data-name="M3">
      <path class="av" d="M334.14,62.92c-.89-5.78-6.32-9.75-12.09-8.86-5.78.89-9.75,6.31-8.86,12.09.81,5.23,5.33,8.99,10.47,8.99.54,0,1.08-.04,1.62-.12,5.78-.89,9.75-6.31,8.86-12.09ZM325.12,74.03c-5.23.8-10.14-2.79-10.95-8.03-.81-5.23,2.79-10.15,8.03-10.95.49-.08.98-.11,1.47-.11,4.65,0,8.75,3.4,9.48,8.14.81,5.23-2.79,10.15-8.03,10.95Z"/>
      <path class="av" d="M322.93,59.84c-2.59.4-4.37,2.82-3.97,5.42s2.82,4.37,5.42,3.97c2.59-.4,4.37-2.82,3.97-5.42-.4-2.59-2.82-4.37-5.42-3.97Z"/>
    </g>
    <g id="h" data-name="M4">
      <path class="av" d="M243.56,198.39c-5.14,0-9.66-3.75-10.47-8.99-.89-5.78,3.08-11.2,8.86-12.09,5.76-.89,11.2,3.08,12.09,8.86h0c.43,2.8-.25,5.6-1.93,7.88-1.67,2.28-4.14,3.78-6.94,4.21-.54.08-1.09.12-1.62.12ZM243.57,178.19c-.48,0-.97.04-1.47.11-5.23.81-8.83,5.72-8.03,10.95.81,5.23,5.72,8.83,10.95,8.03,2.53-.39,4.77-1.74,6.28-3.81s2.14-4.6,1.75-7.14h0c-.73-4.74-4.83-8.14-9.48-8.14Z"/>
      <circle class="av" cx="243.56" cy="187.79" r="4.75"/>
    </g>
    <g id="i" data-name="M1">
      <path class="av" d="M372.12,111.91c-5.14,0-9.66-3.75-10.47-8.99-.89-5.78,3.08-11.2,8.86-12.09,5.77-.89,11.2,3.08,12.09,8.86h0c.89,5.78-3.08,11.2-8.86,12.09-.54.08-1.09.12-1.62.12ZM372.14,91.7c-.48,0-.97.04-1.47.11-5.23.81-8.83,5.72-8.03,10.95.81,5.23,5.72,8.83,10.95,8.03,5.23-.81,8.83-5.72,8.03-10.95-.73-4.74-4.83-8.14-9.48-8.14Z"/>
      <circle class="av" cx="372.13" cy="101.3" r="4.75"/>
    </g>
    <g id="j" data-name="M7">
      <path class="av" d="M473.81,328.44c-.43-2.8-1.93-5.26-4.21-6.94-2.28-1.67-5.08-2.36-7.88-1.93-5.78.89-9.75,6.31-8.86,12.09.81,5.23,5.33,8.99,10.47,8.99.54,0,1.08-.04,1.62-.12,5.78-.89,9.75-6.31,8.86-12.09ZM464.79,339.54c-5.23.81-10.15-2.79-10.95-8.03-.81-5.23,2.79-10.15,8.03-10.95.5-.08.99-.11,1.48-.11,2.02,0,3.99.64,5.66,1.86,2.07,1.52,3.42,3.75,3.81,6.28.81,5.23-2.79,10.15-8.03,10.95Z"/>
      <path class="av" d="M462.73,325.34c-2.6.33-4.44,2.71-4.11,5.31s2.71,4.44,5.31,4.11c2.6-.33,4.44-2.71,4.11-5.31-.33-2.6-2.71-4.44-5.31-4.11Z"/>
    </g>
    <g id="k" data-name="M8">
      <circle class="at" cx="465.28" cy="355.88" r="10.1"/>
      <circle class="av" cx="465.28" cy="355.88" r="4.75"/>
    </g>
  </g>
  <g id="l" data-name="Markers">
    <g id="m" data-name="C3">
      <path class="au" d="M307.88,61.34l-2.03-3.52c-.04-.07-.11-.11-.18-.11h-11.02c-.08,0-.15.04-.18.11l-2.03,3.52c-.04.07-.04.15,0,.21l5.51,9.57c.04.07.11.11.18.11h4.06c.08,0,.15-.04.18-.11l5.51-9.57c.04-.07.04-.15,0-.21ZM307.45,61.44l-5.39,9.35h-3.81l-5.39-9.35,1.91-3.31h10.77l1.91,3.31Z"/>
      <g>
        <rect class="au" x="298.85" y="63.1" width="2.73" height=".58"/>
        <path class="au" d="M300.22,65.86c-1.21.07-2.5-1.02-2.5-2.49,0-1.38,1.16-2.5,2.52-2.49,1.39,0,2.49,1.22,2.51,2.48.02,1.35-1.25,2.6-2.53,2.5ZM298.18,63.36c-.08,1.09.93,2.07,2.02,2.07,1.16,0,2.11-.93,2.1-2.08,0-1.13-.97-2.03-2.05-2.05-1.21-.01-2.15,1.04-2.07,2.05Z"/>
      </g>
      <path class="au" d="M305.4,60.37c-.33-.56-.91-.9-1.56-.9h-7.37c-.65,0-1.24.34-1.56.9-.33.56-.33,1.24,0,1.8l3.69,6.38c.33.56.91.9,1.56.9s1.23-.34,1.56-.9l3.69-6.38c.33-.57.32-1.24,0-1.8ZM305.04,61.96l-3.69,6.38c-.25.43-.7.69-1.19.69s-.94-.26-1.19-.69l-3.69-6.38c-.25-.43-.25-.95,0-1.38.25-.43.7-.69,1.19-.69h7.37c.5,0,.94.26,1.19.69.25.43.25.95,0,1.38Z"/>
    </g>
    <g id="n" data-name="O3">
      <path class="af" d="M289.67,61.34l-2.03-3.52c-.04-.07-.11-.11-.18-.11h-11.02c-.08,0-.15.04-.18.11l-2.03,3.52c-.04.07-.04.15,0,.21l5.51,9.57c.04.07.11.11.18.11h4.06c.08,0,.15-.04.18-.11l5.51-9.57c.04-.07.04-.15,0-.21ZM289.24,61.44l-5.39,9.35h-3.81l-5.39-9.35,1.91-3.31h10.77l1.91,3.31Z"/>
      <g>
        <rect class="af" x="280.64" y="63.1" width="2.73" height=".58"/>
        <path class="af" d="M282.01,65.86c-1.21.07-2.5-1.02-2.5-2.49,0-1.38,1.16-2.5,2.52-2.49,1.39,0,2.49,1.22,2.51,2.48.02,1.35-1.25,2.6-2.53,2.5ZM279.97,63.36c-.08,1.09.93,2.07,2.02,2.07,1.16,0,2.11-.93,2.1-2.08,0-1.13-.97-2.03-2.05-2.05-1.21-.01-2.15,1.04-2.07,2.05Z"/>
      </g>
      <path class="af" d="M287.19,60.37c-.33-.56-.91-.9-1.56-.9h-7.37c-.65,0-1.24.34-1.56.9-.33.56-.33,1.24,0,1.8l3.69,6.38c.33.56.91.9,1.56.9s1.23-.34,1.56-.9l3.69-6.38c.33-.57.32-1.24,0-1.8ZM286.83,61.96l-3.69,6.38c-.25.43-.7.69-1.19.69s-.94-.26-1.19-.69l-3.69-6.38c-.25-.43-.25-.95,0-1.38.25-.43.7-.69,1.19-.69h7.37c.5,0,.94.26,1.19.69.25.43.25.95,0,1.38Z"/>
    </g>
    <g id="o" data-name="O4">
      <path class="af" d="M292.1,184.66l-2.03-3.52c-.04-.07-.11-.11-.18-.11h-11.02c-.08,0-.15.04-.18.11l-2.03,3.52c-.04.07-.04.15,0,.21l5.51,9.57c.04.07.11.11.18.11h4.06c.08,0,.15-.04.18-.11l5.51-9.57c.04-.07.04-.15,0-.21ZM291.67,184.77l-5.39,9.35h-3.81l-5.39-9.35,1.91-3.31h10.77l1.91,3.31Z"/>
      <g>
        <rect class="af" x="283.07" y="186.42" width="2.73" height=".58"/>
        <path class="af" d="M284.44,189.19c-1.21.07-2.5-1.02-2.5-2.49,0-1.38,1.16-2.5,2.52-2.49,1.39,0,2.49,1.22,2.51,2.48.02,1.35-1.25,2.6-2.53,2.5ZM282.4,186.69c-.08,1.09.93,2.07,2.02,2.07,1.16,0,2.11-.93,2.1-2.08,0-1.13-.97-2.03-2.05-2.05-1.21-.01-2.15,1.04-2.07,2.05Z"/>
      </g>
      <path class="af" d="M289.62,183.7c-.33-.56-.91-.9-1.56-.9h-7.37c-.65,0-1.24.34-1.56.9-.33.56-.33,1.24,0,1.8l3.69,6.38c.33.56.91.9,1.56.9s1.23-.34,1.56-.9l3.69-6.38c.33-.57.32-1.24,0-1.8ZM289.26,185.29l-3.69,6.38c-.25.43-.7.69-1.19.69s-.94-.26-1.19-.69l-3.69-6.38c-.25-.43-.25-.95,0-1.38.25-.43.7-.69,1.19-.69h7.37c.5,0,.94.26,1.19.69.25.43.25.95,0,1.38Z"/>
    </g>
    <g id="p" data-name="O5">
      <path class="af" d="M322.42,157.31l-2.03-3.52c-.04-.07-.11-.11-.18-.11h-11.02c-.08,0-.15.04-.18.11l-2.03,3.52c-.04.07-.04.15,0,.21l5.51,9.57c.04.07.11.11.18.11h4.06c.08,0,.15-.04.18-.11l5.51-9.57c.04-.07.04-.15,0-.21ZM321.99,157.42l-5.39,9.35h-3.81l-5.39-9.35,1.91-3.31h10.77l1.91,3.31Z"/>
      <g>
        <rect class="af" x="313.4" y="159.07" width="2.73" height=".58"/>
        <path class="af" d="M314.76,161.83c-1.21.07-2.5-1.02-2.5-2.49,0-1.38,1.16-2.5,2.52-2.49,1.39,0,2.49,1.22,2.51,2.48.02,1.35-1.25,2.6-2.53,2.5ZM312.72,159.34c-.08,1.09.93,2.07,2.02,2.07,1.16,0,2.11-.93,2.1-2.08,0-1.13-.97-2.03-2.05-2.05-1.21-.01-2.15,1.04-2.07,2.05Z"/>
      </g>
      <path class="af" d="M319.95,156.34c-.33-.56-.91-.9-1.56-.9h-7.37c-.65,0-1.24.34-1.56.9-.33.56-.33,1.24,0,1.8l3.69,6.38c.33.56.91.9,1.56.9s1.23-.34,1.56-.9l3.69-6.38c.33-.57.32-1.24,0-1.8ZM319.58,157.93l-3.69,6.38c-.25.43-.7.69-1.19.69s-.94-.26-1.19-.69l-3.69-6.38c-.25-.43-.25-.95,0-1.38.25-.43.7-.69,1.19-.69h7.37c.5,0,.94.26,1.19.69.25.43.25.95,0,1.38Z"/>
    </g>
    <g id="q" data-name="O4">
      <path class="af" d="M79.4,385.71l-2.03-3.52c-.04-.07-.11-.11-.18-.11h-11.02c-.08,0-.15.04-.18.11l-2.03,3.52c-.04.07-.04.15,0,.21l5.51,9.57c.04.07.11.11.18.11h4.06c.08,0,.15-.04.18-.11l5.51-9.57c.04-.07.04-.15,0-.21ZM78.97,385.81l-5.39,9.35h-3.81l-5.39-9.35,1.91-3.31h10.77l1.91,3.31Z"/>
      <g>
        <rect class="af" x="70.37" y="387.47" width="2.73" height=".58"/>
        <path class="af" d="M71.74,390.23c-1.21.07-2.5-1.02-2.5-2.49,0-1.38,1.16-2.5,2.52-2.49,1.39,0,2.49,1.22,2.51,2.48.02,1.35-1.25,2.6-2.53,2.5ZM69.7,387.73c-.08,1.09.93,2.07,2.02,2.07,1.16,0,2.11-.93,2.1-2.08,0-1.13-.97-2.03-2.05-2.05-1.21-.01-2.15,1.04-2.07,2.05Z"/>
      </g>
      <path class="af" d="M76.92,384.74c-.33-.56-.91-.9-1.56-.9h-7.37c-.65,0-1.24.34-1.56.9-.33.56-.33,1.24,0,1.8l3.69,6.38c.33.56.91.9,1.56.9s1.23-.34,1.56-.9l3.69-6.38c.33-.57.32-1.24,0-1.8ZM76.56,386.33l-3.69,6.38c-.25.43-.7.69-1.19.69s-.94-.26-1.19-.69l-3.69-6.38c-.25-.43-.25-.95,0-1.38.25-.43.7-.69,1.19-.69h7.37c.5,0,.94.26,1.19.69.25.43.25.95,0,1.38Z"/>
    </g>
    <g id="r" data-name="C1">
      <path class="au" d="M357.53,98.46l-2.03-3.52c-.04-.07-.11-.11-.18-.11h-11.02c-.08,0-.15.04-.18.11l-2.03,3.52c-.04.07-.04.15,0,.21l5.51,9.57c.04.07.11.11.18.11h4.06c.08,0,.15-.04.18-.11l5.51-9.57c.04-.07.04-.15,0-.21ZM357.1,98.56l-5.39,9.35h-3.81l-5.39-9.35,1.91-3.31h10.77l1.91,3.31Z"/>
      <g>
        <rect class="au" x="348.51" y="100.22" width="2.73" height=".58"/>
        <path class="au" d="M349.87,102.98c-1.21.07-2.5-1.02-2.5-2.49,0-1.38,1.16-2.5,2.52-2.49,1.39,0,2.49,1.22,2.51,2.48.02,1.35-1.25,2.6-2.53,2.5ZM347.83,100.49c-.08,1.09.93,2.07,2.02,2.07,1.16,0,2.11-.93,2.1-2.08,0-1.13-.97-2.03-2.05-2.05-1.21-.01-2.15,1.04-2.07,2.05Z"/>
      </g>
      <path class="au" d="M355.06,97.49c-.33-.56-.91-.9-1.56-.9h-7.37c-.65,0-1.24.34-1.56.9-.33.56-.33,1.24,0,1.8l3.69,6.38c.33.56.91.9,1.56.9s1.23-.34,1.56-.9l3.69-6.38c.33-.57.32-1.24,0-1.8ZM354.69,99.08l-3.69,6.38c-.25.43-.7.69-1.19.69s-.94-.26-1.19-.69l-3.69-6.38c-.25-.43-.25-.95,0-1.38.25-.43.7-.69,1.19-.69h7.37c.5,0,.94.26,1.19.69.25.43.25.95,0,1.38Z"/>
    </g>
    <g id="s" data-name="C6">
      <path class="au" d="M372.97,343.28l-2.03-3.52c-.04-.07-.11-.11-.18-.11h-11.02c-.08,0-.15.04-.18.11l-2.03,3.52c-.04.07-.04.15,0,.21l5.51,9.57c.04.07.11.11.18.11h4.06c.08,0,.15-.04.18-.11l5.51-9.57c.04-.07.04-.15,0-.21ZM372.54,343.39l-5.39,9.35h-3.81l-5.39-9.35,1.91-3.31h10.77l1.91,3.31Z"/>
      <g>
        <rect class="au" x="363.95" y="345.04" width="2.73" height=".58"/>
        <path class="au" d="M365.32,347.8c-1.21.07-2.5-1.02-2.5-2.49,0-1.38,1.16-2.5,2.52-2.49,1.39,0,2.49,1.22,2.51,2.48.02,1.35-1.25,2.6-2.53,2.5ZM363.28,345.31c-.08,1.09.93,2.07,2.02,2.07,1.16,0,2.11-.93,2.1-2.08,0-1.13-.97-2.03-2.05-2.05-1.21-.01-2.15,1.04-2.07,2.05Z"/>
      </g>
      <path class="au" d="M370.5,342.31c-.33-.56-.91-.9-1.56-.9h-7.37c-.65,0-1.24.34-1.56.9-.33.56-.33,1.24,0,1.8l3.69,6.38c.33.56.91.9,1.56.9s1.23-.34,1.56-.9l3.69-6.38c.33-.57.32-1.24,0-1.8ZM370.13,343.9l-3.69,6.38c-.25.43-.7.69-1.19.69s-.94-.26-1.19-.69l-3.69-6.38c-.25-.43-.25-.95,0-1.38.25-.43.7-.69,1.19-.69h7.37c.5,0,.94.26,1.19.69.25.43.25.95,0,1.38Z"/>
    </g>
    <g id="t" data-name="O6">
      <path class="af" d="M391.45,343.28l-2.03-3.52c-.04-.07-.11-.11-.18-.11h-11.02c-.08,0-.15.04-.18.11l-2.03,3.52c-.04.07-.04.15,0,.21l5.51,9.57c.04.07.11.11.18.11h4.06c.08,0,.15-.04.18-.11l5.51-9.57c.04-.07.04-.15,0-.21ZM391.03,343.39l-5.39,9.35h-3.81l-5.39-9.35,1.91-3.31h10.77l1.91,3.31Z"/>
      <g>
        <rect class="af" x="382.43" y="345.04" width="2.73" height=".58"/>
        <path class="af" d="M383.8,347.8c-1.21.07-2.5-1.02-2.5-2.49,0-1.38,1.16-2.5,2.52-2.49,1.39,0,2.49,1.22,2.51,2.48.02,1.35-1.25,2.6-2.53,2.5ZM381.76,345.31c-.08,1.09.93,2.07,2.02,2.07,1.16,0,2.11-.93,2.1-2.08,0-1.13-.97-2.03-2.05-2.05-1.21-.01-2.15,1.04-2.07,2.05Z"/>
      </g>
      <path class="af" d="M388.98,342.31c-.33-.56-.91-.9-1.56-.9h-7.37c-.65,0-1.24.34-1.56.9-.33.56-.33,1.24,0,1.8l3.69,6.38c.33.56.91.9,1.56.9s1.23-.34,1.56-.9l3.69-6.38c.33-.57.32-1.24,0-1.8ZM388.61,343.9l-3.69,6.38c-.25.43-.7.69-1.19.69s-.94-.26-1.19-.69l-3.69-6.38c-.25-.43-.25-.95,0-1.38.25-.43.7-.69,1.19-.69h7.37c.5,0,.94.26,1.19.69.25.43.25.95,0,1.38Z"/>
    </g>
    <g id="u" data-name="O3">
      <path class="af" d="M339.98,98.46l-2.03-3.52c-.04-.07-.11-.11-.18-.11h-11.02c-.08,0-.15.04-.18.11l-2.03,3.52c-.04.07-.04.15,0,.21l5.51,9.57c.04.07.11.11.18.11h4.06c.08,0,.15-.04.18-.11l5.51-9.57c.04-.07.04-.15,0-.21ZM339.55,98.56l-5.39,9.35h-3.81l-5.39-9.35,1.91-3.31h10.77l1.91,3.31Z"/>
      <g>
        <rect class="af" x="330.96" y="100.22" width="2.73" height=".58"/>
        <path class="af" d="M332.32,102.98c-1.21.07-2.5-1.02-2.5-2.49,0-1.38,1.16-2.5,2.52-2.49,1.39,0,2.49,1.22,2.51,2.48.02,1.35-1.25,2.6-2.53,2.5ZM330.29,100.49c-.08,1.09.93,2.07,2.02,2.07,1.16,0,2.11-.93,2.1-2.08,0-1.13-.97-2.03-2.05-2.05-1.21-.01-2.15,1.04-2.07,2.05Z"/>
      </g>
      <path class="af" d="M337.51,97.49c-.33-.56-.91-.9-1.56-.9h-7.37c-.65,0-1.24.34-1.56.9-.33.56-.33,1.24,0,1.8l3.69,6.38c.33.56.91.9,1.56.9s1.23-.34,1.56-.9l3.69-6.38c.33-.57.32-1.24,0-1.8ZM337.14,99.08l-3.69,6.38c-.25.43-.7.69-1.19.69s-.94-.26-1.19-.69l-3.69-6.38c-.25-.43-.25-.95,0-1.38.25-.43.7-.69,1.19-.69h7.37c.5,0,.94.26,1.19.69.25.43.25.95,0,1.38Z"/>
    </g>
    <g id="v" data-name="C7">
      <path class="au" d="M463.5,303.22l-2.03-3.52c-.04-.07-.11-.11-.18-.11h-11.02c-.08,0-.15.04-.18.11l-2.03,3.52c-.04.07-.04.15,0,.21l5.51,9.57c.04.07.11.11.18.11h4.06c.08,0,.15-.04.18-.11l5.51-9.57c.04-.07.04-.15,0-.21ZM463.07,303.33l-5.39,9.35h-3.81l-5.39-9.35,1.91-3.31h10.77l1.91,3.31Z"/>
      <g>
        <rect class="au" x="454.48" y="304.98" width="2.73" height=".58"/>
        <path class="au" d="M455.84,307.75c-1.21.07-2.5-1.02-2.5-2.49,0-1.38,1.16-2.5,2.52-2.49,1.39,0,2.49,1.22,2.51,2.48.02,1.35-1.25,2.6-2.53,2.5ZM453.8,305.25c-.08,1.09.93,2.07,2.02,2.07,1.16,0,2.11-.93,2.1-2.08,0-1.13-.97-2.03-2.05-2.05-1.21-.01-2.15,1.04-2.07,2.05Z"/>
      </g>
      <path class="au" d="M461.03,302.26c-.33-.56-.91-.9-1.56-.9h-7.37c-.65,0-1.24.34-1.56.9-.33.56-.33,1.24,0,1.8l3.69,6.38c.33.56.91.9,1.56.9s1.23-.34,1.56-.9l3.69-6.38c.33-.57.32-1.24,0-1.8ZM460.66,303.85l-3.69,6.38c-.25.43-.7.69-1.19.69s-.94-.26-1.19-.69l-3.69-6.38c-.25-.43-.25-.95,0-1.38.25-.43.7-.69,1.19-.69h7.37c.5,0,.94.26,1.19.69.25.43.25.95,0,1.38Z"/>
    </g>
    <g id="w" data-name="O7">
      <path class="au" d="M494.12,352.75l-2.03-3.52c-.04-.07-.11-.11-.18-.11h-11.02c-.08,0-.15.04-.18.11l-2.03,3.52c-.04.07-.04.15,0,.21l5.51,9.57c.04.07.11.11.18.11h4.06c.08,0,.15-.04.18-.11l5.51-9.57c.04-.07.04-.15,0-.21ZM493.69,352.86l-5.39,9.35h-3.81l-5.39-9.35,1.91-3.31h10.77l1.91,3.31Z"/>
      <g>
        <rect class="au" x="485.1" y="354.51" width="2.73" height=".58"/>
        <path class="au" d="M486.47,357.28c-1.21.07-2.5-1.02-2.5-2.49,0-1.38,1.16-2.5,2.52-2.49,1.39,0,2.49,1.22,2.51,2.48.02,1.35-1.25,2.6-2.53,2.5ZM484.43,354.78c-.08,1.09.93,2.07,2.02,2.07,1.16,0,2.11-.93,2.1-2.08,0-1.13-.97-2.03-2.05-2.05-1.21-.01-2.15,1.04-2.07,2.05Z"/>
      </g>
      <path class="au" d="M491.65,351.78c-.33-.56-.91-.9-1.56-.9h-7.37c-.65,0-1.24.34-1.56.9-.33.56-.33,1.24,0,1.8l3.69,6.38c.33.56.91.9,1.56.9s1.23-.34,1.56-.9l3.69-6.38c.33-.57.32-1.24,0-1.8ZM491.28,353.38l-3.69,6.38c-.25.43-.7.69-1.19.69s-.94-.26-1.19-.69l-3.69-6.38c-.25-.43-.25-.95,0-1.38.25-.43.7-.69,1.19-.69h7.37c.5,0,.94.26,1.19.69.25.43.25.95,0,1.38Z"/>
    </g>
    <g id="x" data-name="O7">
      <path class="af" d="M481.17,303.22l-2.03-3.52c-.04-.07-.11-.11-.18-.11h-11.02c-.08,0-.15.04-.18.11l-2.03,3.52c-.04.07-.04.15,0,.21l5.51,9.57c.04.07.11.11.18.11h4.06c.08,0,.15-.04.18-.11l5.51-9.57c.04-.07.04-.15,0-.21ZM480.74,303.33l-5.39,9.35h-3.81l-5.39-9.35,1.91-3.31h10.77l1.91,3.31Z"/>
      <g>
        <rect class="af" x="472.15" y="304.98" width="2.73" height=".58"/>
        <path class="af" d="M473.52,307.75c-1.21.07-2.5-1.02-2.5-2.49,0-1.38,1.16-2.5,2.52-2.49,1.39,0,2.49,1.22,2.51,2.48.02,1.35-1.25,2.6-2.53,2.5ZM471.48,305.25c-.08,1.09.93,2.07,2.02,2.07,1.16,0,2.11-.93,2.1-2.08,0-1.13-.97-2.03-2.05-2.05-1.21-.01-2.15,1.04-2.07,2.05Z"/>
      </g>
      <path class="af" d="M478.7,302.26c-.33-.56-.91-.9-1.56-.9h-7.37c-.65,0-1.24.34-1.56.9-.33.56-.33,1.24,0,1.8l3.69,6.38c.33.56.91.9,1.56.9s1.23-.34,1.56-.9l3.69-6.38c.33-.57.32-1.24,0-1.8ZM478.33,303.85l-3.69,6.38c-.25.43-.7.69-1.19.69s-.94-.26-1.19-.69l-3.69-6.38c-.25-.43-.25-.95,0-1.38.25-.43.7-.69,1.19-.69h7.37c.5,0,.94.26,1.19.69.25.43.25.95,0,1.38Z"/>
    </g>
    <g id="y" data-name="O8">
      <path class="af" d="M511.62,352.75l-2.03-3.52c-.04-.07-.11-.11-.18-.11h-11.02c-.08,0-.15.04-.18.11l-2.03,3.52c-.04.07-.04.15,0,.21l5.51,9.57c.04.07.11.11.18.11h4.06c.08,0,.15-.04.18-.11l5.51-9.57c.04-.07.04-.15,0-.21ZM511.19,352.86l-5.39,9.35h-3.81l-5.39-9.35,1.91-3.31h10.77l1.91,3.31Z"/>
      <g>
        <rect class="af" x="502.6" y="354.51" width="2.73" height=".58"/>
        <path class="af" d="M503.96,357.28c-1.21.07-2.5-1.02-2.5-2.49,0-1.38,1.16-2.5,2.52-2.49,1.39,0,2.49,1.22,2.51,2.48.02,1.35-1.25,2.6-2.53,2.5ZM501.92,354.78c-.08,1.09.93,2.07,2.02,2.07,1.16,0,2.11-.93,2.1-2.08,0-1.13-.97-2.03-2.05-2.05-1.21-.01-2.15,1.04-2.07,2.05Z"/>
      </g>
      <path class="af" d="M509.15,351.78c-.33-.56-.91-.9-1.56-.9h-7.37c-.65,0-1.24.34-1.56.9-.33.56-.33,1.24,0,1.8l3.69,6.38c.33.56.91.9,1.56.9s1.23-.34,1.56-.9l3.69-6.38c.33-.57.32-1.24,0-1.8ZM508.78,353.38l-3.69,6.38c-.25.43-.7.69-1.19.69s-.94-.26-1.19-.69l-3.69-6.38c-.25-.43-.25-.95,0-1.38.25-.43.7-.69,1.19-.69h7.37c.5,0,.94.26,1.19.69.25.43.25.95,0,1.38Z"/>
    </g>
    <g id="z" data-name="C4">
      <path class="au" d="M274.17,184.66l-2.03-3.52c-.04-.07-.11-.11-.18-.11h-11.02c-.08,0-.15.04-.18.11l-2.03,3.52c-.04.07-.04.15,0,.21l5.51,9.57c.04.07.11.11.18.11h4.06c.08,0,.15-.04.18-.11l5.51-9.57c.04-.07.04-.15,0-.21ZM273.74,184.77l-5.39,9.35h-3.81l-5.39-9.35,1.91-3.31h10.77l1.91,3.31Z"/>
      <g>
        <rect class="au" x="265.14" y="186.42" width="2.73" height=".58"/>
        <path class="au" d="M266.51,189.19c-1.21.07-2.5-1.02-2.5-2.49,0-1.38,1.16-2.5,2.52-2.49,1.39,0,2.49,1.22,2.51,2.48.02,1.35-1.25,2.6-2.53,2.5ZM264.47,186.69c-.08,1.09.93,2.07,2.02,2.07,1.16,0,2.11-.93,2.1-2.08,0-1.13-.97-2.03-2.05-2.05-1.21-.01-2.15,1.04-2.07,2.05Z"/>
      </g>
      <path class="au" d="M271.69,183.7c-.33-.56-.91-.9-1.56-.9h-7.37c-.65,0-1.24.34-1.56.9-.33.56-.33,1.24,0,1.8l3.69,6.38c.33.56.91.9,1.56.9s1.23-.34,1.56-.9l3.69-6.38c.33-.57.32-1.24,0-1.8ZM271.33,185.29l-3.69,6.38c-.25.43-.7.69-1.19.69s-.94-.26-1.19-.69l-3.69-6.38c-.25-.43-.25-.95,0-1.38.25-.43.7-.69,1.19-.69h7.37c.5,0,.94.26,1.19.69.25.43.25.95,0,1.38Z"/>
    </g>
    <g id="aa" data-name="C2">
      <path class="au" d="M97.67,385.71l-2.03-3.52c-.04-.07-.11-.11-.18-.11h-11.02c-.08,0-.15.04-.18.11l-2.03,3.52c-.04.07-.04.15,0,.21l5.51,9.57c.04.07.11.11.18.11h4.06c.08,0,.15-.04.18-.11l5.51-9.57c.04-.07.04-.15,0-.21ZM97.24,385.81l-5.39,9.35h-3.81l-5.39-9.35,1.91-3.31h10.77l1.91,3.31Z"/>
      <g>
        <rect class="au" x="88.65" y="387.47" width="2.73" height=".58"/>
        <path class="au" d="M90.01,390.23c-1.21.07-2.5-1.02-2.5-2.49,0-1.38,1.16-2.5,2.52-2.49,1.39,0,2.49,1.22,2.51,2.48.02,1.35-1.25,2.6-2.53,2.5ZM87.98,387.73c-.08,1.09.93,2.07,2.02,2.07,1.16,0,2.11-.93,2.1-2.08,0-1.13-.97-2.03-2.05-2.05-1.21-.01-2.15,1.04-2.07,2.05Z"/>
      </g>
      <path class="au" d="M95.2,384.74c-.33-.56-.91-.9-1.56-.9h-7.37c-.65,0-1.24.34-1.56.9-.33.56-.33,1.24,0,1.8l3.69,6.38c.33.56.91.9,1.56.9s1.23-.34,1.56-.9l3.69-6.38c.33-.57.32-1.24,0-1.8ZM94.83,386.33l-3.69,6.38c-.25.43-.7.69-1.19.69s-.94-.26-1.19-.69l-3.69-6.38c-.25-.43-.25-.95,0-1.38.25-.43.7-.69,1.19-.69h7.37c.5,0,.94.26,1.19.69.25.43.25.95,0,1.38Z"/>
    </g>
    <g id="ab" data-name="C5">
      <path class="au" d="M338.78,157.31l-2.03-3.52c-.04-.07-.11-.11-.18-.11h-11.02c-.08,0-.15.04-.18.11l-2.03,3.52c-.04.07-.04.15,0,.21l5.51,9.57c.04.07.11.11.18.11h4.06c.08,0,.15-.04.18-.11l5.51-9.57c.04-.07.04-.15,0-.21ZM338.35,157.42l-5.39,9.35h-3.81l-5.39-9.35,1.91-3.31h10.77l1.91,3.31Z"/>
      <g>
        <rect class="au" x="329.76" y="159.07" width="2.73" height=".58"/>
        <path class="au" d="M331.13,161.83c-1.21.07-2.5-1.02-2.5-2.49,0-1.38,1.16-2.5,2.52-2.49,1.39,0,2.49,1.22,2.51,2.48.02,1.35-1.25,2.6-2.53,2.5ZM329.09,159.34c-.08,1.09.93,2.07,2.02,2.07,1.16,0,2.11-.93,2.1-2.08,0-1.13-.97-2.03-2.05-2.05-1.21-.01-2.15,1.04-2.07,2.05Z"/>
      </g>
      <path class="au" d="M336.31,156.34c-.33-.56-.91-.9-1.56-.9h-7.37c-.65,0-1.24.34-1.56.9-.33.56-.33,1.24,0,1.8l3.69,6.38c.33.56.91.9,1.56.9s1.23-.34,1.56-.9l3.69-6.38c.33-.57.32-1.24,0-1.8ZM335.94,157.93l-3.69,6.38c-.25.43-.7.69-1.19.69s-.94-.26-1.19-.69l-3.69-6.38c-.25-.43-.25-.95,0-1.38.25-.43.7-.69,1.19-.69h7.37c.5,0,.94.26,1.19.69.25.43.25.95,0,1.38Z"/>
    </g>
  </g>
  <g id="ac" data-name="Font">
    <text class="aj" transform="translate(75.65 239.89)"><tspan x="0" y="0">0:107:200</tspan></text>
    <text class="aj" transform="translate(197.4 239.89)"><tspan x="0" y="0">0:107:200</tspan></text>
    <text class="ai" transform="translate(338.74 68.54)"><tspan x="0" y="0">VODYAKAMANA</tspan></text>
    <text class="ai" transform="translate(386.06 105.31)"><tspan x="0" y="0">NUKAMBA</tspan></text>
    <text class="ai" transform="translate(182.77 191.79)"><tspan x="0" y="0">MARFIC</tspan></text>
    <text class="ai" transform="translate(368.11 164.35)"><tspan x="0" y="0">UPANIKLIS</tspan></text>
    <text class="ai" transform="translate(128.5 391.56)"><tspan x="0" y="0">GRAFFIAS</tspan></text>
    <text class="ai" transform="translate(307.86 329.77)"><tspan x="0" y="0">HR 6524</tspan></text>
    <text class="ai" transform="translate(478.07 334.05)"><tspan x="0" y="0">COL 359 SECTOR AE-N B9-4</tspan></text>
    <text class="ag" transform="translate(436.54 380.79)"><tspan class="ak"><tspan x="0" y="0">HIP 87621</tspan></tspan><tspan class="aw"><tspan x="-5.89" y="14.4">Permit Locked</tspan></tspan></text>
    <text class="aj" transform="translate(319.26 239.89)"><tspan x="0" y="0">200:107:200</tspan></text>
    <text class="aj" transform="translate(438.98 239.89)"><tspan x="0" y="0">300:107:200</tspan></text>
  </g>
  <g id="ad" data-name="Legend">
    <g>
      <path class="au" d="M65.05,43.34l-2.03-3.52c-.04-.07-.11-.11-.18-.11h-11.02c-.08,0-.15.04-.18.11l-2.03,3.52c-.04.07-.04.15,0,.21l5.51,9.57c.04.07.11.11.18.11h4.06c.08,0,.15-.04.18-.11l5.51-9.57c.04-.07.04-.15,0-.21ZM64.63,43.44l-5.39,9.35h-3.81l-5.39-9.35,1.91-3.31h10.77l1.91,3.31Z"/>
      <g>
        <rect class="au" x="56.03" y="45.1" width="2.73" height=".58"/>
        <path class="au" d="M57.4,47.86c-1.21.07-2.5-1.02-2.5-2.49,0-1.38,1.16-2.5,2.52-2.49,1.39,0,2.49,1.22,2.51,2.48.02,1.35-1.25,2.6-2.53,2.5ZM55.36,45.36c-.08,1.09.93,2.07,2.02,2.07,1.16,0,2.11-.93,2.1-2.08,0-1.13-.97-2.03-2.05-2.05-1.21-.01-2.15,1.04-2.07,2.05Z"/>
      </g>
      <path class="au" d="M62.58,42.37c-.33-.56-.91-.9-1.56-.9h-7.37c-.65,0-1.24.34-1.56.9-.33.56-.33,1.24,0,1.8l3.69,6.38c.33.56.91.9,1.56.9s1.23-.34,1.56-.9l3.69-6.38c.33-.57.32-1.24,0-1.8ZM62.21,43.96l-3.69,6.38c-.25.43-.7.69-1.19.69s-.94-.26-1.19-.69l-3.69-6.38c-.25-.43-.25-.95,0-1.38.25-.43.7-.69,1.19-.69h7.37c.5,0,.94.26,1.19.69.25.43.25.95,0,1.38Z"/>
    </g>
    <g>
      <path class="af" d="M65.05,64.41l-2.03-3.52c-.04-.07-.11-.11-.18-.11h-11.02c-.08,0-.15.04-.18.11l-2.03,3.52c-.04.07-.04.15,0,.21l5.51,9.57c.04.07.11.11.18.11h4.06c.08,0,.15-.04.18-.11l5.51-9.57c.04-.07.04-.15,0-.21ZM64.63,64.51l-5.39,9.35h-3.81l-5.39-9.35,1.91-3.31h10.77l1.91,3.31Z"/>
      <g>
        <rect class="af" x="56.03" y="66.17" width="2.73" height=".58"/>
        <path class="af" d="M57.4,68.93c-1.21.07-2.5-1.02-2.5-2.49,0-1.38,1.16-2.5,2.52-2.49,1.39,0,2.49,1.22,2.51,2.48.02,1.35-1.25,2.6-2.53,2.5ZM55.36,66.43c-.08,1.09.93,2.07,2.02,2.07,1.16,0,2.11-.93,2.1-2.08,0-1.13-.97-2.03-2.05-2.05-1.21-.01-2.15,1.04-2.07,2.05Z"/>
      </g>
      <path class="af" d="M62.58,63.44c-.33-.56-.91-.9-1.56-.9h-7.37c-.65,0-1.24.34-1.56.9-.33.56-.33,1.24,0,1.8l3.69,6.38c.33.56.91.9,1.56.9s1.23-.34,1.56-.9l3.69-6.38c.33-.57.32-1.24,0-1.8ZM62.21,65.03l-3.69,6.38c-.25.43-.7.69-1.19.69s-.94-.26-1.19-.69l-3.69-6.38c-.25-.43-.25-.95,0-1.38.25-.43.7-.69,1.19-.69h7.37c.5,0,.94.26,1.19.69.25.43.25.95,0,1.38Z"/>
    </g>
    <text class="ah" transform="translate(71.12 50.54)"><tspan x="0" y="0">CYGNUS</tspan></text>
    <text class="ae" transform="translate(71.12 71.61)"><tspan x="0" y="0">THE ORION</tspan></text>
  </g>
</svg>